<svg width="36" height="36" viewBox="0 0 36 36" fill="none" xmlns="http://www.w3.org/2000/svg">
<path d="M20.3107 27.6793L29.9207 18.0193L20.3107 8.35931C20.2239 8.24533 20.1137 8.15134 19.9874 8.08369C19.8611 8.01603 19.7218 7.9763 19.5788 7.96718C19.4358 7.95806 19.2926 7.97976 19.1587 8.03082C19.0249 8.08187 18.9036 8.16109 18.803 8.26311C18.7024 8.36513 18.6249 8.48757 18.5758 8.62213C18.5267 8.7567 18.507 8.90025 18.5182 9.04307C18.5293 9.18589 18.5711 9.32465 18.6405 9.44995C18.71 9.57524 18.8055 9.68415 18.9207 9.76931L26.1107 17.0193H6.98071C6.7155 17.0193 6.46115 17.1247 6.27361 17.3122C6.08607 17.4997 5.98071 17.7541 5.98071 18.0193C5.98071 18.2845 6.08607 18.5389 6.27361 18.7264C6.46115 18.914 6.7155 19.0193 6.98071 19.0193H26.1107L18.9207 26.2693C18.7337 26.4576 18.6292 26.7125 18.6302 26.9778C18.6311 27.2432 18.7374 27.4973 18.9257 27.6843C19.114 27.8713 19.3689 27.9758 19.6343 27.9749C19.8996 27.9739 20.1537 27.8676 20.3407 27.6793H20.3107Z" fill="white"/>
</svg>
