<svg width="24" height="24" viewBox="0 0 24 24" fill="none" xmlns="http://www.w3.org/2000/svg">
<g clip-path="url(#clip0_5_9)">
<path d="M17.318 0.077C18.536 0.133 19.378 0.312 20.156 0.614C20.8931 0.890979 21.5607 1.3258 22.112 1.888C22.6742 2.43932 23.109 3.10691 23.386 3.844C23.688 4.623 23.867 5.464 23.923 6.682C23.992 8.192 24 8.724 24 12C24 15.276 23.992 15.808 23.923 17.318C23.867 18.536 23.688 19.378 23.386 20.157C23.1089 20.8937 22.6741 21.561 22.112 22.112C21.5607 22.6742 20.8931 23.109 20.156 23.386C19.377 23.688 18.536 23.867 17.318 23.923C15.808 23.992 15.277 24 12 24C8.723 24 8.191 23.992 6.682 23.923C5.464 23.867 4.622 23.688 3.843 23.386C3.10627 23.1089 2.43903 22.6741 1.888 22.112C1.3258 21.5607 0.890979 20.8931 0.614 20.156C0.312 19.377 0.133 18.536 0.077 17.318C0.008 15.81 0 15.278 0 12C0 8.722 0.008 8.19 0.077 6.682C0.133 5.464 0.312 4.622 0.614 3.844C0.890979 3.10691 1.3258 2.43932 1.888 1.888C2.43903 1.32593 3.10627 0.891108 3.843 0.614C4.623 0.312 5.464 0.133 6.682 0.077C8.19 0.008 8.722 0 12 0C15.278 0 15.81 0.008 17.318 0.077ZM12 2.667C8.76 2.667 8.264 2.674 6.803 2.741C5.876 2.783 5.32 2.901 4.809 3.1C4.374 3.27 4.097 3.45 3.773 3.773C3.449 4.096 3.27 4.374 3.1 4.81C2.902 5.32 2.783 5.877 2.741 6.804C2.674 8.264 2.667 8.76 2.667 12C2.667 15.24 2.674 15.736 2.741 17.197C2.783 18.124 2.901 18.68 3.1 19.19C3.27 19.626 3.45 19.903 3.773 20.227C4.096 20.551 4.374 20.731 4.809 20.9C5.319 21.098 5.876 21.217 6.803 21.259C8.265 21.326 8.761 21.333 12 21.333C15.24 21.333 15.735 21.326 17.197 21.259C18.124 21.217 18.68 21.099 19.191 20.9C19.626 20.73 19.903 20.55 20.227 20.227C20.551 19.904 20.731 19.626 20.9 19.191C21.098 18.681 21.217 18.124 21.259 17.197C21.326 15.735 21.333 15.239 21.333 12C21.333 8.761 21.326 8.265 21.259 6.803C21.217 5.876 21.099 5.32 20.9 4.81C20.7589 4.41694 20.5285 4.06197 20.227 3.773C19.938 3.47149 19.5831 3.24111 19.19 3.1C18.68 2.902 18.123 2.783 17.196 2.741C15.735 2.674 15.239 2.667 11.999 2.667M11.999 18.222C10.3488 18.222 8.76623 17.5665 7.59938 16.3996C6.43253 15.2328 5.777 13.6502 5.777 12C5.777 10.3498 6.43253 8.76723 7.59938 7.60038C8.76623 6.43353 10.3488 5.778 11.999 5.778C13.6492 5.778 15.2318 6.43353 16.3986 7.60038C17.5655 8.76723 18.221 10.3498 18.221 12C18.221 13.6502 17.5655 15.2328 16.3986 16.3996C15.2318 17.5665 13.6492 18.222 11.999 18.222ZM11.999 15.556C12.9421 15.556 13.8466 15.1814 14.5135 14.5145C15.1804 13.8476 15.555 12.9431 15.555 12C15.555 11.0569 15.1804 10.1524 14.5135 9.48553C13.8466 8.81865 12.9421 8.444 11.999 8.444C11.0559 8.444 10.1514 8.81865 9.48453 9.48553C8.81765 10.1524 8.443 11.0569 8.443 12C8.443 12.9431 8.81765 13.8476 9.48453 14.5145C10.1514 15.1814 11.0559 15.556 11.999 15.556ZM18.221 7.111C17.8673 7.111 17.5282 6.97051 17.2781 6.72043C17.028 6.47035 16.8875 6.13117 16.8875 5.7775C16.8875 5.42383 17.028 5.08465 17.2781 4.83457C17.5282 4.58449 17.8673 4.444 18.221 4.444C18.5747 4.444 18.9138 4.58449 19.1639 4.83457C19.414 5.08465 19.5545 5.42383 19.5545 5.7775C19.5545 6.13117 19.414 6.47035 19.1639 6.72043C18.9138 6.97051 18.5747 7.111 18.221 7.111Z" fill="white"/>
</g>
<defs>
<clipPath id="clip0_5_9">
<rect width="24" height="24" fill="white"/>
</clipPath>
</defs>
</svg>
