<svg width="24" height="24" viewBox="0 0 24 24" fill="none" xmlns="http://www.w3.org/2000/svg">
<g clip-path="url(#clip0_6_4)">
<mask id="mask0_6_4" style="mask-type:luminance" maskUnits="userSpaceOnUse" x="0" y="0" width="24" height="24">
<path d="M0 0H24V24H0V0Z" fill="white"/>
</mask>
<g mask="url(#mask0_6_4)">
<path fill-rule="evenodd" clip-rule="evenodd" d="M24 0H0V24H24V0ZM17.768 6.64C17.8558 6.53964 17.9226 6.42274 17.9646 6.29617C18.0065 6.1696 18.0227 6.03591 18.0123 5.90299C18.0018 5.77006 17.9648 5.64056 17.9036 5.52213C17.8423 5.40369 17.758 5.2987 17.6555 5.21334C17.5531 5.12798 17.4346 5.06396 17.3071 5.02506C17.1796 4.98616 17.0455 4.97316 16.9129 4.98683C16.7802 5.00049 16.6517 5.04055 16.5347 5.10463C16.4178 5.16872 16.3149 5.25555 16.232 5.36L12 10.438L7.7685 5.36C7.68512 5.25704 7.58211 5.17168 7.46545 5.10887C7.3488 5.04606 7.22083 5.00706 7.08897 4.99413C6.95712 4.9812 6.82401 4.9946 6.69738 5.03355C6.57074 5.0725 6.45311 5.13623 6.35132 5.22103C6.24953 5.30583 6.1656 5.41001 6.10441 5.52753C6.04323 5.64504 6.006 5.77354 5.9949 5.90556C5.9838 6.03758 5.99904 6.17049 6.03974 6.29658C6.08045 6.42266 6.1458 6.53939 6.232 6.64L10.6985 12L6.232 17.36C6.1458 17.4606 6.08045 17.5773 6.03974 17.7034C5.99904 17.8295 5.9838 17.9624 5.9949 18.0944C6.006 18.2265 6.04323 18.355 6.10441 18.4725C6.1656 18.59 6.24953 18.6942 6.35132 18.779C6.45311 18.8638 6.57074 18.9275 6.69738 18.9664C6.82401 19.0054 6.95712 19.0188 7.08897 19.0059C7.22083 18.9929 7.3488 18.9539 7.46545 18.8911C7.58211 18.8283 7.68512 18.743 7.7685 18.64L12 13.562L16.232 18.64C16.3149 18.7445 16.4178 18.8313 16.5347 18.8954C16.6517 18.9595 16.7802 18.9995 16.9129 19.0132C17.0455 19.0268 17.1796 19.0138 17.3071 18.9749C17.4346 18.936 17.5531 18.872 17.6555 18.7867C17.758 18.7013 17.8423 18.5963 17.9036 18.4779C17.9648 18.3594 18.0018 18.2299 18.0123 18.097C18.0227 17.9641 18.0065 17.8304 17.9646 17.7038C17.9226 17.5773 17.8558 17.4604 17.768 17.36L13.3015 12L17.768 6.64Z" fill="white"/>
</g>
</g>
<defs>
<clipPath id="clip0_6_4">
<rect width="24" height="24" fill="white"/>
</clipPath>
</defs>
</svg>
